<svg width="20" height="20" viewBox="0 0 20 20" fill="none" xmlns="http://www.w3.org/2000/svg">
<path d="M5.83368 2.79169H14.1667C15.5924 2.79169 16.649 3.2 17.3493 3.90009C18.0496 4.60037 18.4587 5.65776 18.4587 7.08368V12.9167C18.4587 14.3426 18.0496 15.399 17.3493 16.0993C16.649 16.7996 15.5926 17.2087 14.1667 17.2087H5.83368C4.40776 17.2087 3.35037 16.7996 2.65009 16.0993C1.95 15.399 1.54169 14.3424 1.54169 12.9167V7.08368C1.54169 5.65776 1.94981 4.60037 2.65009 3.90009C3.35037 3.19981 4.40776 2.79169 5.83368 2.79169ZM5.83368 3.04169C4.56852 3.04169 3.53124 3.34901 2.81512 4.06512C2.09901 4.78124 1.79169 5.81852 1.79169 7.08368V12.9167C1.79169 14.1818 2.09901 15.2191 2.81512 15.9352C3.53123 16.6512 4.56862 16.9587 5.83368 16.9587H14.1667C15.4318 16.9587 16.4691 16.6514 17.1852 15.9352C17.9014 15.2191 18.2087 14.1818 18.2087 12.9167V7.08368C18.2087 5.81862 17.9012 4.78123 17.1852 4.06512C16.4691 3.34901 15.4318 3.04169 14.1667 3.04169H5.83368Z" fill="#292D32" stroke="#111827"/>
<path d="M14.0897 7.39648C14.1438 7.35252 14.2186 7.36795 14.2508 7.41016L14.2567 7.41699L14.2615 7.42383C14.2946 7.46449 14.2944 7.51659 14.2742 7.55371L14.2479 7.58496L14.2381 7.59277L11.6297 9.67578L11.6229 9.68164C11.1934 10.0373 10.6032 10.2246 9.99982 10.2246C9.39736 10.2246 8.80572 10.0372 8.36603 9.67871L8.36212 9.67578L5.7547 7.59375C5.69358 7.54244 5.69604 7.46507 5.72931 7.42383C5.7807 7.36058 5.85957 7.36268 5.90118 7.39648L5.90411 7.39941L8.51251 9.48242C8.93373 9.82013 9.47759 9.97266 9.99591 9.97266C10.514 9.9726 11.0572 9.81993 11.4783 9.48242L14.0867 7.39941L14.0897 7.39648Z" fill="#292D32" stroke="#111827"/>
</svg>
